<!DOCTYPE svg PUBLIC "-//W3C//DTD SVG 1.1//EN" "http://www.w3.org/Graphics/SVG/1.1/DTD/svg11.dtd">
<!-- Uploaded to: SVG Repo, www.svgrepo.com, Transformed by: SVG Repo Mixer Tools -->
<svg fill="#f3eeea" height="800px" width="800px" version="1.1" id="Layer_1" xmlns="http://www.w3.org/2000/svg" xmlns:xlink="http://www.w3.org/1999/xlink" viewBox="0 0 447.10 447.10" xml:space="preserve" stroke="#f3eeea" stroke-width="14.7543">
<g id="SVGRepo_bgCarrier" stroke-width="0"/>
<g id="SVGRepo_tracerCarrier" stroke-linecap="round" stroke-linejoin="round"/>
<g id="SVGRepo_iconCarrier"> <g transform="translate(0 -540.36)"> <g> <g> <path d="M301.6,546.96c-0.5-3.8-3.7-6.6-7.4-6.6H152.9c-3.8,0-7,2.8-7.4,6.6c-1.4,11.7-1.4,27.1-1.4,43.4v98.6 c0,78.6,31.1,141.1,72,148v135.5h-29.2c-4.1,0-7.5,3.4-7.5,7.5s3.4,7.5,7.5,7.5h73.4c4.1,0,7.5-3.4,7.5-7.5s-3.4-7.5-7.5-7.5 h-29.2v-135.6c40.8-6.8,71.9-69.3,71.9-147.9v-98.6C303,574.06,303,558.66,301.6,546.96z M288,688.96 c0,72.4-29.5,133.6-64.5,133.6s-64.5-61.2-64.5-133.6v0v-98.6c0-12.8,0-25,0.7-35h127.6c0.7,9.9,0.7,22.1,0.7,35V688.96z"/> <path d="M260.2,572.86c-4.1,0-7.5,3.4-7.5,7.5v49.9c0,4.1,3.4,7.5,7.5,7.5c4.1,0,7.5-3.4,7.5-7.5v-49.9 C267.7,576.26,264.3,572.86,260.2,572.86z"/> <path d="M260.2,647.76c-4.1,0-7.5,3.4-7.5,7.5v8.7c0,4.1,3.4,7.5,7.5,7.5c4.1,0,7.5-3.3,7.5-7.5v-8.7 C267.7,651.16,264.3,647.76,260.2,647.76z"/> </g> </g> </g> </g>
</svg>